<?xml version="1.0" encoding="UTF-8"?>
<svg xmlns="http://www.w3.org/2000/svg" version="1.1" viewBox="0 0 512 512">
  <defs>
    <style>
      .cls-1 {
        fill: #222;
      }
    </style>
  </defs>
  <!-- Generator: Adobe Illustrator 28.7.1, SVG Export Plug-In . SVG Version: 1.2.0 Build 142)  -->
  <g>
    <g id="Capa_1">
      <path class="cls-1" d="M301.2,256L502.6,54.6c12.5-12.5,12.5-32.8,0-45.3-12.5-12.5-32.8-12.5-45.3,0h0l-201.4,201.4L54.6,9.4C42.1-3.1,21.9-3.1,9.4,9.4s-12.5,32.8,0,45.3l201.4,201.4L9.4,457.4c-12.5,12.5-12.5,32.8,0,45.3s32.8,12.5,45.3,0l201.4-201.4,201.4,201.4c12.5,12.5,32.8,12.5,45.3,0,12.5-12.5,12.5-32.8,0-45.3l-201.4-201.4Z"/>
    </g>
  </g>
</svg>