<?xml version="1.0" encoding="UTF-8"?>
<svg xmlns="http://www.w3.org/2000/svg" version="1.1" viewBox="0 0 512 512">
  <defs>
    <style>
      .cls-1 {
        fill: #fff;
      }
    </style>
  </defs>
  <!-- Generator: Adobe Illustrator 28.7.1, SVG Export Plug-In . SVG Version: 1.2.0 Build 142)  -->
  <g>
    <g id="Outline">
      <path class="cls-1" d="M501.4,125c-14.2-14.3-37.4-14.4-51.7-.2,0,0-.1.1-.2.2l-167.5,167.5c-14.2,14.3-37.4,14.4-51.7.2,0,0-.1-.1-.2-.2L62.6,125c-14.2-14.3-37.4-14.4-51.7-.2,0,0-.1.1-.2.2-14.2,14.3-14.2,37.3,0,51.6l167.8,167.8c42.8,42.8,112.2,42.8,155,0l167.8-167.8c14.2-14.3,14.2-37.3,0-51.6Z"/>
    </g>
  </g>
</svg>