<?xml version="1.0" encoding="UTF-8"?>
<svg xmlns="http://www.w3.org/2000/svg" version="1.1" viewBox="0 0 512 512">
  <defs>
    <style>
      .cls-1 {
        fill: #222;
      }
    </style>
  </defs>
  <!-- Generator: Adobe Illustrator 28.7.1, SVG Export Plug-In . SVG Version: 1.2.0 Build 142)  -->
  <g>
    <g id="Capa_1">
      <g>
        <path class="cls-1" d="M480,224H32c-17.7,0-32,14.3-32,32s14.3,32,32,32h448c17.7,0,32-14.3,32-32s-14.3-32-32-32Z"/>
        <path class="cls-1" d="M32,138.7h448c17.7,0,32-14.3,32-32s-14.3-32-32-32H32C14.3,74.7,0,89,0,106.7s14.3,32,32,32Z"/>
        <path class="cls-1" d="M480,373.3H32c-17.7,0-32,14.3-32,32s14.3,32,32,32h448c17.7,0,32-14.3,32-32s-14.3-32-32-32Z"/>
      </g>
    </g>
  </g>
</svg>